<?xml version="1.0" encoding="utf-8"?>
<!-- Generator: Adobe Illustrator 16.0.0, SVG Export Plug-In . SVG Version: 6.00 Build 0)  -->
<!DOCTYPE svg PUBLIC "-//W3C//DTD SVG 1.1//EN" "http://www.w3.org/Graphics/SVG/1.1/DTD/svg11.dtd">
<svg version="1.1" id="Layer_1" xmlns="http://www.w3.org/2000/svg" xmlns:xlink="http://www.w3.org/1999/xlink" x="0px" y="0px"
	 width="100px" height="70px" viewBox="0 0 100 70" enable-background="new 0 0 100 70" xml:space="preserve">
<g id="Layer_x0020_1">
	<path fill="#FFFFFF" d="M7.727,36.004c1.358,0.466,6.002,7.61,6.891,9.18c0.325,0.576,2.184,2.267,2.866,2.824l0.758,0.546
		c0.052,0.042,0.127,0.104,0.179,0.148c1.034,0.885,0.441,0.655,1.689,1.271c1.294,0.64,2.053,0.86,3.234,1.421
		c0.899,0.426,5.674,2.761,6.653,2.938l-2.013-2.264L20.43,48.68c-1.687-1.045-2.7-2.297-3.991-3.636
		c-3.752-3.894-1.35-2.606-3.176-4.786c-0.563-0.674-1.3-1.26-1.929-2.091l-3.684-4.469c-1.228-1.722-0.177-1.326-2.221-3.765
		c-0.849-1.011-2.027-8.544-3.55-10.165c0.308,3.825,2.412,10.5,4.064,13.539c1.05,1.932,0.577,1.631,0.961,3.182l4.495,8.463
		c1.056,1.424,0.838,1.662,1.922,2.521c2.166,1.717-1.1-1.197,0.56,0.422l1.284,1.697c2.307,3.001,1.06,0.246,5.796,4.79
		c1.758,1.688,8.058,4.115,8.877,4.081l-1.264-1.54c-0.004-0.004-4.085-1.409-5.477-2.34c-1.495-0.998-1.725-1.19-2.929-2.724
		c-0.947-1.205-1.25-1.064-2.472-2.143c-2.553-2.252-3.57-4.379-5.373-6.885C11.168,41.225,8.51,38.003,7.727,36.004L7.727,36.004z
		 M12.115,61.453c-0.018,0.058-0.081,0.141-0.083,0.164c-0.001,0.021-0.014,0.156-0.015,0.179c0,0.027,0.009,0.187,0.081,0.196
		c0.085,0.012,0.102,0.137,0.147,0.208L12.115,61.453z M97.926,31.318c-1.16,1.562-0.556-1.052-0.383,0.498
		c0.084,0.742-0.045,0.201,0.461,0.521L97.926,31.318z M29.453,68.548c0.158,0.11,0.325,0.026,0.557,0.005l-1.202-0.724
		L29.453,68.548z M17.196,66.623c-0.118-1.354,0.115-0.58-0.766-0.791L17.196,66.623z M54.911,69.545
		c-0.087,0.02-0.562,0.442,0.155,0.454C55.41,70.005,55.954,69.315,54.911,69.545z M82.656,8.334
		c-0.537,0.104-0.715,0.85,0.021,0.519C83.377,8.535,82.889,8.289,82.656,8.334z M98.238,26.954
		c-0.422,0.001-0.461-0.102-0.559,0.125c-0.538,1.262,0.231,0.458,0.395,0.554L98.238,26.954c0.223,0.113,0.689-0.498,0.315,1.636
		c-0.318,1.822,0.585,4.217,1.027,6.062c0.851-1.777-0.365-0.062,0.128-2.668c0.301-1.593-0.039-1.816-0.631-2.804
		c0.041-0.051,0.145-0.162,0.096-0.171l0.42-0.585l-0.613-2.913c-0.041-0.115-0.187-0.441-0.228-0.528l-0.256-0.405
		c-0.036,0.078-0.003,0.184-0.095,0.24c-0.093,0.057-0.068,0.188-0.076,0.246L98.238,26.954L98.238,26.954z M13.387,10.225
		c0.534-0.802,0.399,0.183,0.398-0.881c0-1.023-0.458-0.524-0.616-0.513L13.387,10.225z M94.293,17.673
		c-0.266,0.531-0.389-0.511-0.189,0.687c0.146,0.884-0.05,0.087,0.316,0.652C94.555,18.798,95.558,19.007,94.293,17.673z
		 M19.202,65.732c-0.909,0.297,0.308,1.002,0.528,1.121C20.168,65.749,19.881,66.104,19.202,65.732z M29.39,4.06
		c-0.52-0.37,0.595-0.368-0.92-0.31l0.743,1.213c0.115,0.662-0.085,0.643,0.456,0.337c0.886,1.027,0.371,0.11,2.344,1.471
		c1.118,0.771,5.858,3.065,6.082,3.109c1.616,0.319,1.192-0.339,1.206-0.348l-8.467-5.151l-0.444,0.383L29.39,4.06z M28.063,7.137
		c-0.318-1.417-0.362-0.94-1.938-2.155c-0.108-0.084-0.911,0.033-0.469-0.354c0.06-0.053-0.176-0.124-0.267-0.183L28.063,7.137
		c0.649,2.242,2.107,1.711,3.326,2.529c3.429,2.303,3.17,1.356,7.207,2.757c1.042,0.362-0.331,0.135,0.771,0.206
		c1.713,0.11,0.878-0.456,2.979,0.869c0.587,0.371,1.663,1.069,2.258,1.288c0.77,0.282,1.999,0.581,2.553,0.585
		c0.661,1.047,0.157,0.629,1.36,1.124c1.272,0.522,0.078,0.399,1.501,0.365c1.868,2.123,4.15,1.26,5.227,2.996
		c0.526,0.483,1.285,0.831,2.089,1.135c0.358,0.875,1.263,1.64,2.14,2.508c2.203,2.179,4.99,6.204,4.768,9.649
		c-0.221,3.416-1.985,6.896-4.336,8.934c-1.078,0.935-1.314,0.516-2.084,1.966c-0.288,0.125-0.961,0.368-1.242,0.535
		c-0.941,0.56-0.454,0.403-0.613,0.646c-3.199,1.312-3.799,2.615-7.454,3.58c-6.604,1.744-7.828,0.33-12.514-0.043
		c-10.944-0.875-20.792-8.338-26.842-17.202c-1.636-2.395-3.274-6.079-3.932-6.324l3.985,9.05c0.455,0.612,1.028,1.084,1.605,1.782
		c2.885,3.488,1.783,3.391,4.304,4.78c0.201,2.629-0.211,1.943,1.703,3.658c3.529,3.161,6.819,5.099,11.188,6.729
		c3.833,1.431,11.399,1.924,15.037,1.564c0.847-0.084,1.388-0.261,2.178-0.211c1.215,0.077,0.971,0.336,2.477,0.334
		c2.545-0.611,6.565-1.425,7.633-3.281c0.857-0.223,0.712-0.109,1.723-0.752c0.912-0.578,0.693-0.529,1.777-0.932
		c0.945-1.307,2.211-1.327,2.918-2.775c3.496-1.305,5.166-7.93,5.404-11.387c0.383-5.582-2.197-9.469-4.711-13.34
		c-0.459-0.405-0.781-0.716-1.192-1.1c-2.241-2.094-6.448-5.941-8.905-6.833l-0.596-0.103c-0.697-0.797-1.213-0.913-2.322-1.318
		c-3.369-1.231-3.577-2.258-7.306-3.353c-1.226-0.359-3.664-1.929-4.769-2.522c-0.982-0.526-1.947-0.674-2.741-1.02
		c-1.053-0.458-1.089-0.944-2.033-1.59c0.498,1.926,1.292,2.329,3.846,3.524c4.984,2.333,0.458,1.253,6.933,4.274
		c0.961,0.449,1.1,0.688,1.976,0.901c0.042,0.009,0.141,0.014,0.182,0.024c0.686,0.172,0.12-0.151,1.051,0.54
		c2.145,1.591,2.011,0.813,3.875,1.346l-0.049,0.614c1.646-0.127,0.764,0.119,2.198,0.523c0.574,1.532,0.068,0.156,1.668,1.184
		c1.946,1.25,1.791,1.917,3.27,2.629c0.848,0.408,1.201,0.678,1.682,0.909c1.021,1.836,2.826,2.338,3.914,4.447
		c2.859,5.55,4.652,9.229,1.798,15.266l-1.058,2.547c-0.691,0.854-1.566,1.305-2.381,2.407c-0.732,0.99,0.116,0.285-1.227,1.163
		c-0.514,0.336-0.809,0.348-1.127,0.903c-2.178,1.023-4.752,3.503-7.305,4.223l-3.748,1.215c-1.888-0.142-6.815,0.625-7.408,0.578
		c-1.942-0.15-9.104-1.102-10.523-1.621c-1.325-0.484-2.333-0.855-3.887-1.338c-2.667-0.83-7.596-3.949-9.571-6.573
		c1.942,0.872,2.702,1.458,4.33,2.696l4.166,2.574c1.578,0.814,8.022,2.594,9.746,2.73c2.057,0.163,3.837,0.323,5.64,0.471
		c2.647,0.216,8.717-0.147,11.119-1.422c0.544-0.287,3.74-2.227,3.932-2.621c1.355-0.582,2.051-0.695,2.556-1.956
		c3.157-0.751,6.438-6.726,6.878-10.445c0.389-3.287-0.542-4.894-1.555-7.615c-0.69-1.859-1.053-1.551-1.864-2.627
		c-0.917-1.216-0.719-1.606-1.884-2.479c-1.043-1.457-3.219-3.069-4.654-3.668c-0.416-0.762,0.301-0.097-0.772-0.868
		c-0.033-0.023-0.781-0.438-0.817-0.457c-0.648-0.34-1.182-0.551-1.821-0.924l-2.933-1.341c-0.607-0.594,0.408,0.086-0.377-0.134
		l-6.865-3.186c-2.04-1.202-2.131,0.684-8.378-1.821C31.593,8.595,29.699,6.865,28.063,7.137L28.063,7.137z M7.95,14.45
		c-0.06-1.935-0.263-1.12-0.572-1.371c-0.007,0.018-0.475,0.085-0.092,0.975C7.718,15.053,7.147,14.215,7.95,14.45z M76.43,63.51
		c-1.221,0.836-0.994-0.005-1.152,1.584c1.079-0.703,0.154,0.298,0.926-0.775C76.619,63.738,76.332,64.035,76.43,63.51z
		 M0.368,22.079c-0.46,1.039-0.282,1.021,0.293,1.749C1.197,23.006,1.067,22.805,0.368,22.079z M74.824,5.517
		c0.516,1.158,0.246,1.181,1.464,1.73C75.959,6.299,75.812,5.551,74.824,5.517z M7.81,17.48c-0.641,0.963-0.337,0.739,0.231,1.663
		C8.109,19.013,9.26,18.793,7.81,17.48z M94.658,33.356l0.005,3.639c0.371-0.646,0.506-1.981,0.38-2.891
		C94.83,32.572,95.098,33.826,94.658,33.356z M75.117,12.973c-0.1,0.228-0.682-0.604-0.157,1c0.395,1.208,0.695,0.767,0.965,0.904
		C76.023,13.844,76.089,13.52,75.117,12.973z M22.727,5.312c0.417,0.881,1.25,2.365,2.11,2.218l-0.005-0.408
		C24.475,6.181,23.486,5.425,22.727,5.312z M42.211,32.057c0.855,0.75,1.683,1.221,2.962,0.621c-0.581-0.793-0.05-0.727-1.489-0.934
		C42.893,31.632,42.814,31.545,42.211,32.057z M70.883,3.347c-0.004,0.011-1.254,0.259,0.486,2.02l1.701,1.312
		C72.627,5.247,71.596,4.461,70.883,3.347z M45.762,0c0.434,1.127-0.137,0.269,0.527,1.011c0.467,0.523,1.739,1.074,2.25,1.155
		l0.492-0.939L45.762,0z M70.112,46.428c3.487-5.881,4.524-8.978,3.993-16.226c-0.178-2.429-0.869-4.805-2.04-7.225
		c-0.565-1.167-2.843-4.537-3.597-5.384l-4.156-5.014c-1.635-1.738-2.632-3.638-3.842-5.043c-1.942-2.252-8.043-5.201-10.626-6.047
		l-0.687,0.92c1.214,0.776,2.298,1.322,3.692,1.814c1.8,0.631,4.92,2.899,6.427,4.194c1.783,1.532,3.647,4.41,5.116,6.073
		c0.974,1.102,1.621,1.615,2.578,2.805c1.232,1.528,3.596,4.852,4.43,6.625c1.428,3.026,2.234,5.697,2.156,9.294
		c-0.125,5.587-0.522,3.671-1.889,8.044c-0.628,2.01-0.85,2.021-1.891,3.508c-1.508,2.154-2.537,3.976-4.508,5.924
		c-3.937,3.891-14.385,7.961-19.68,9.069c-6.258,1.31-9.75,0.784-15.474-0.565c-0.887-0.211-1.161-0.057-2.141-0.234
		c-1.443-0.259-2.435-0.983-3.829-1.424c-2.605-0.82-4.411-2.682-6.257-4.445c-1.179-1.125-1.84-0.531-3.084-2.099
		c-5.327-6.705-5.683-9.759-8.48-14.013l-1.668,1.746l1.313-2.706l-2.686-5.798c-0.661-1.463-1.194-4.673-2.241-5.585
		c-0.164,3.073,0.004,3.07,1.023,5.772c0.547,1.451,0.147,1.395,0.891,2.672c0.651,1.116,0.956,1.901,1.199,3.371l-1.81-1.696
		c0.63,3.895,1.391,2.67,1.649,3.945l0.05,4.158c0.353,2.351,1.771,3.388,2.768,5.318c0.397,0.77,0.456,0.923,0.939,1.557
		c2.337,3.076,3.341,7.094,5.594,10.213c1.602,2.22,0.951,0.475,1.196,3.04c0.121,1.274,1.03,1.936,1.894,2.464l-1.196-3.318
		c1.097,1.01,1.922,2.32,3.343,2.775c-0.989-1.479-1.966-2.984-3.195-4.217c-1.256-1.259-4.119-5.924-3.717-7.564
		c1.794,2.709,3.274,5.373,5.708,7.581c0.702,0.638,0.729,0.922,1.558,1.374c2.985,1.629,5.513,5.143,8.604,6.418l-6.465-6.199
		c-2.956-2.359-4.166-3.583-6.323-6.76c-1.464-2.155-1.104-2.047-2.965-3.861c-1.064-1.039-1.771-2.71-2.612-3.985
		c-1.251-1.898-4.32-7.094-3.962-8.671l0.794,1.104c0.097,0.182,0.317,0.749,0.396,0.96c1.791,4.73,2.324,4.384,4.096,7.168
		c0.69,1.088,1.372,2.186,2.367,3.085c2.365,2.142,1.511,2.521,3.537,4.669c1.45,1.537,2.51,2.875,3.988,4.035l1.415,1.225
		c1.379,1.169,1.392,1.361,3.296,1.797c1.54,0.353,2.022,0.952,3.829,1.41c1.73,0.438,5.812,2.972,11.654,2.883
		c1.497-0.023,8.156-1.792,9.379-2.406c4.198-2.109,13.315-5.327,15.958-7.25c1.126-0.819,1.839-1.795,2.77-2.609
		c1.967-1.723,0.865-1.057,2.223-2.986c4.469-6.348,5.804-15.905,4.839-23.881c-0.429-3.542-1.84-5.444-3.274-8.272
		c-0.852-1.678-7.521-11.139-9.904-11.946c-0.131,0.439-0.453-0.429,0.007,0.998c0.314,0.979,0.771,0.925,1.55,1.808
		c5.904,6.698,10.825,11.719,11.242,21.649c0.183,4.362-0.507,7.013-1.73,10.757c-0.316,0.973-0.377,2.127-0.779,3.146
		c-1.319,3.33-2.57,5.696-5.059,8.111c-1.262,1.223-0.783,1.121-2.324,2.021c-4.271,2.493-9.4,4.031-13.753,5.988
		c-5.504,2.477-8.218,4.179-14.532,3.21c-1.642-0.253-2.985-0.794-4.446-0.784c-0.796,0.008-0.53,0.096-1.263-0.355
		c-0.43-0.266-0.002-0.07-0.623-0.376c-4.16-2.048-7.014-1.524-10.985-6.233c-0.887-1.053-4.087-3.545-3.843-4.68
		c1.615,1.041,2.948,2.148,4.299,3.626c0.912,0.997,1.512,0.55,2.315,1.943c1.08,1.876,1.333,1.703,3.302,2.595
		c0.66,0.3,1.209,0.623,2.066,0.811c1.39,0.304,1.327,0.42,1.795-0.662c-1.376-0.439-6.196-1.281-6.277-2.961l0.74-0.041
		c1.097,0.294,2.661,1.174,5.267,1.824c4.858,1.213,8.961,2.836,14.368,1.439c1.491-0.385,2.222-0.963,3.455-1.244
		c1.854-0.42,2.045-0.366,3.755-1.104C59.765,55.772,65.325,54.497,70.112,46.428L70.112,46.428z M33.224,44.307
		c0.346,0.683,0.175,0.451,0.808,0.816c2.678,1.543,2.727,0.254,2.764,0.225C34.493,43.926,34.397,43.607,33.224,44.307z
		 M50.052,53.119l-2.854,0.843c-3.134-0.833-5.936-0.062-9.266-0.284c-6.103-0.408-7.736-1.803-7.167,0.922
		c3.436-0.055,1.364-0.045,4.087,0.278l7.621,0.079c1.385,0.003,3.036-0.52,4.1-0.294c-3.803,2.099-9.831,1.076-13.879,0.722
		c-2.86-0.25-1.017,0.856-3.205-0.171c-0.853-0.401-1.982-0.925-2.802-1.299c-1.069-0.49-4.376-2.438-5.414-2.337
		c1.643,2.277,0.288,0.645,2.394,2.182c0.672,0.488,6.797,3.074,7.199,3.114c1.211,0.119,3.772-0.222,6.304,0.315
		c5.427,1.154,9.381-1.41,10.978-1.688l2.191-0.686c1.698-0.648,5.254-1.769,6.28-2.791l4.536-2.538l0.353-0.366
		c1.122-0.764,1.802-1.386,2.676-2.314c0.729-0.775,1.694-1.761,1.83-2.832l1.023-1.425c0.883-1.457,1.107-2.722,1.471-4.537
		c1.305-2.418,0.701-7.917,0.232-10.737c-0.357-2.159-1.238-1.339,0.059-2.51l-0.709-0.253c-0.654-0.299-0.364,0.265-1.309-1.65
		C64.053,17.324,55.25,9.74,49.148,7.452c-2.444-0.916-5.151-1.833-7.241-3.033c-1.186-0.681-4.496-1.826-5.878-2.18l-0.45-0.146
		c-0.527-0.171-0.357-0.323-1.13-0.356c1.934,1.613,0.763,0.736,2.755,1.698c2.243,1.082,0.832,0.915,4.415,2.157l4.204,2.159
		c1.462,0.944,1.986,0.608,3.074,1.3c3.301,2.099,3.635,1.715,8.111,5.022c1.167,0.863,1.536,1.2,2.62,1.941
		c0.984,0.675,1.518,1.425,2.292,2.4l3.76,4.322c0.593,0.65,0.297,0.685,0.868,2.035c3.423,8.088,0.79,7.572,1.666,12.866
		c-0.933,1.02-0.625,1.404-1.236,2.592c-1.689,3.275-1.889,3.853-4.486,6.336c-0.596,0.494-2.16,1.486-2.848,2.208
		c-1.342,0.501-2.693,1.429-4.074,2.198c-0.64,0.355-1.098,0.66-1.855,0.979c-1.007,0.422-1.343,0.332-1.89,0.948L50.052,53.119z
		 M19.091,63.428c0.784,1.997,3.674,3.495,5.082,4.978c-0.656-1.679-2.454-2.718-3.663-4.085
		C19.512,63.191,20.794,63.591,19.091,63.428z M35.431,41.957c-0.888-0.718-1.789-0.658-2.515,0.174
		c0.753,0.939,2.553,1.236,3.497,1.438c0.524,0.538,0.021,0.369,0.872,0.57c0.383,0.09,0.442-0.009,0.83-0.001
		c0.854,0.016,1.141,0.087,2.004,0.117c3.426,0.96,12.346-0.307,15.508-2.625c6.672-4.891,4.463-9.802,6.1-11.54
		C61.855,36,61.93,37.4,56.659,41.878c-2.045,1.171-1.899,1.399-4.718,2.241c-2.512,0.75-3.027,1.014-5.616,0.844l-5.008,0.179
		c-0.752-0.042-0.654,0.086-1.797-0.155c-2.448-0.518-1.729,0.057-1.929,0.224c0.991,0.844,1.761,1.27,2.424,1.378
		c0.037,0.006,2.444,0.04,2.892-0.004l3.531-0.395c1.044,0.283,2.336-0.127,4.006-0.166c-0.103,0.744,0.377,0.102-0.277,0.615
		l-5.834,0.606c-1.635,0.278-2.402-0.05-3.449,0.812c0.627,1.652,1.569,0.596,3.714,0.711c1.559-0.465,3.256-0.391,4.651-0.828
		c3.953-1.236,2.107-1.44,2.221-2.023l1.74-0.412c1.812-0.682,2.322-1.115,3.752-2.346l0.855-0.935
		c2.93-0.833,6.252-7.651,4.846-11.953c-0.896-2.745-4.249-6.385-6.174-8.193c-1.168-1.099-1.033-1.307-2.536-1.502
		c-0.82-1.029-1.834-1.226-3.055-1.856c-1.265-0.652-2.123-0.835-3.372-1.293c-2.228-0.815-5.512-2.903-6.548-3.011
		c-0.928-0.08-3.354-0.965-4.314-1.34c-1.45-0.565-2.765-0.562-4.256-1.215l-1.044-0.562c-2.039-1.074-2.223-0.523-4.452-2.565
		c-0.166-0.152-0.87-1.158-1.773-0.503c0.311,0.834,0.214,0.502,0.804,1.058l0.349,0.333c0.05,0.053,0.111,0.128,0.161,0.183
		c1.784,1.971,7.903,4.883,9.285,4.942c1.622,0.069,0.223-0.098,1.89,0.587c0.521,0.214,0.574,0.126,1.196,0.34
		c0.546,0.188,1.446,0.708,2.23,0.988c1.623,0.192-0.507-0.074,1.915,1.189l1.331,0.543c0.067,0.028,0.157,0.062,0.222,0.091
		l0.426,0.208c1.898,0.96,0.668,0.3,2.257,0.872l0.435,0.184c0.915,0.399,0.697,0.6,1.6,0.475c1.068,1.172,1.53,0.874,2.954,1.532
		l1.773,0.693c1.802,0.574,2.473,1.756,3.757,3.133c1.299,1.39,2.977,1.966,2.764,4.41c-0.33,3.812-1.299,6.995-4.226,9.25
		c-2.606,2.008-7.397,3.711-10.907,3.951c-2.021,0.138-3.506-0.544-5.664-0.344c-1.156-0.428-1.417-0.206-2.137-0.299
		C36.573,42.422,36.672,42.199,35.431,41.957L35.431,41.957z M59.176,51.728l-2.086,1.376c-2.406,0.719-4.309,2.002-6.913,2.705
		c-8.98,2.427-5.122,2.33-14.172,2.227c-4.602-0.053-5.715-1.777-5.239,0.62l6.347,1.063c3.467,0.287,7.202-0.247,10.402-1.587
		c1.178-0.493,6.503-1.429,8.864-3.196c1.289-0.278,1.153-0.343,1.992-0.846c0.336-0.203,0.613-0.329,0.898-0.547
		c0.28-0.215,0.408-0.422,0.561-0.6c2.265-0.27,5.807-4.119,7.084-5.642c2.729-3.255,3.831-7.673,4.191-11.818
		c0.092-1.053,0.01-3.213-0.039-4.357c-0.167-4.041-1.305-2.937-0.115-3.718l0.986,11.043c0.559-7.616,1.412-8.622-1.888-14.61
		C66.674,17.716,58.617,8.07,51.749,5.386c-1.326-0.519-1.816-0.749-3.127-1.23c-1.826-0.672-1.738-1.111-6.118-2.594
		c-3.076-1.041-1.505-0.264-3.128-0.67l1.912,1.174c4.139,2.112,1.462,1.273,5.738,2.754c1.208,0.418,0.994,0.599,1.842,1.005
		c4.073,1.953,3.569,0.851,8.44,4.585l0.869,0.79c0.051,0.048,0.117,0.119,0.166,0.167l0.346,0.318
		c0.051,0.046,0.126,0.106,0.178,0.152c1.48,1.299,5.537,5.702,6.419,7.046c0.438,0.668,0.796,1.105,1.325,1.749
		c4.883,5.95,3.094,6.264,3.398,8.381c0.477,3.311,0.607,6.75-0.32,9.718c-1.896,6.053-2.769,7.303-6.781,10.596
		C61.197,50.731,61.34,50.646,59.176,51.728L59.176,51.728z M73.081,7.033c0.585,1.498,2.446,3.124,2.874,4.35
		c0.359,1.03,1.908,4.123,2.746,4.917c0.584-1.08-0.182-1.061-0.738-2.492c-0.929-2.384-1.344-2.957-2.83-4.87
		C74.231,7.776,74.467,7.304,73.081,7.033z M66.332,2.472c0.764,1.772,2.829,3.838,4.128,5.012c0.972,0.879,2.826,4.688,3.938,5.196
		c-1.837-2.951-3.326-5.593-5.496-8.225C67.09,2.259,67.291,2.498,66.332,2.472L66.332,2.472z M34.518,39.011
		c-1.671-0.569-4.033-2.442-5.821-1.823c1.424,1.086,4.066,3.475,5.549,3.464c0.424,0.217-0.159,0.029,0.712,0.249l1.479,0.4
		c1.038,0.387,0.978,0.322,2.273,0.346c1.538,0.972,8.698,1.289,10.664,0.18c-4.732-1.281-5.73-0.584-11.498-1.756
		C36.984,39.594,35.686,39.373,34.518,39.011L34.518,39.011z M3.779,17.857c-0.556,1.32-0.123,0.607,0.367,2.848
		c0.362,1.662,0.337-0.053,0.567,1.43c0.095,0.607-0.44,0.528,0.245,1.598c1.054,1.647,0.957-1.115,2.138,2.696
		c0.422,1.364,0.817,2.306,2.13,1.908l-2.916-4.884C5.304,21.917,4.636,19.224,3.779,17.857z M97.368,47.281
		c0.053-0.077,0.237-0.202,0.169-0.226l1.088-3.067c0.642-3.023,0.288,0.426,0.865-5.348l0.191-3.266
		c-1.19,0.595-0.836,0.047-0.971,2.453c-0.253,4.512-1.172,4.487-1.209,5.962C97.475,44.987,97.436,46.057,97.368,47.281z
		 M63.225,60.896c1.384-0.898,0.644,0.051,0.693-1.19c-2.602,0.568-4.609,2.259-5.99,2.865c-4.424,1.947-10.827,5.478-15.517,6.131
		c-1.559,0.217-2.239-0.235-3.135,0.084l13.017-2.503L63.225,60.896L63.225,60.896z M86.734,49.201
		c-2.755,8.535-3.275,6.83-5.882,12.955l1.034-0.629l3.396-5.55c0.662-1.258,2.209-5.103,2.117-6.409L86.734,49.201z M24.23,63.617
		c0.217,1.615,0.161,0.761,1.456,1.42c0.888,0.451,0.476,0.564,1.549,1.053l7.248,2.566c1.787,0.558,3.096,0.953,4.068,0.085
		c-1.498-0.838-2.288-0.276-4.018-0.906c-3.983-1.45-1.857-0.663-5.284-2.196c-0.801-0.359-1.105-0.275-1.839-0.621
		C26.227,64.458,25.853,63.778,24.23,63.617z M36.639,37.26l-2.762-0.916c-0.495-0.626,0.007-0.145-0.86-0.712
		c-1.076-0.706-1.936-0.927-3.038-1.364c-1.913-0.759-4.922-3.206-7.205-4.684c-1.008-0.652-1.362-1.5-3.14-2.814
		c-4.572-3.382-7.337-9.984-9.815-14.731c-0.037-0.068-0.1-0.182-0.129-0.237l-0.277-0.458c2.001,5.729,2.832,8.749,6.352,13.68
		c0.488,0.683,0.353,0.45,0.754,0.919c0.046,0.054,0.111,0.125,0.157,0.179l1.12,1.246c3.514,3.587,2.13,2,5.471,4.727
		c1.312,1.073,1.441,0.729,2.222,1.308c2.263,1.678,1.351,0.644,2.569,1.61c1.503,1.191,0.208,0.425,1.797,1.041
		c1.912,0.742,2.753,1.572,4.222,1.59c0.597,0.492-0.08,0.092,0.854,0.546c0.072,0.035,0.505,0.202,0.641,0.253
		c1.024,0.381,0.946,0.311,1.981,0.377c1.161,0.633,0.074,0.508,1.484,0.793c0.542,0.109,1.299,0.115,2.072,0.259
		c1.474,0.272,2.629,0.556,4.42,0.47l2.959-0.06c0.475,0.542,1.451,0.668,2.194,0.694c1.516-0.486,2.797-0.699,4.021-1.693
		c0.576-0.47,0.995-0.716,1.536-1.197c0.729-0.648,0.618-0.666,0.899-1.49c0.433-0.331,0.023,0.29,0.531-0.637
		c0.033-0.061,0.275-0.686,0.354-0.889c1.901-4.833,1.693-5.937-0.979-8.513c-0.453-0.435-0.861-0.869-1.357-1.322l-1.266-0.84
		c-1.295-1.183-1.618-1.4-2.965-1.616c-0.808-0.81-1.3-0.796-2.374-1.102c-1.169-0.333-1.44-0.858-2.69-0.869
		c-0.845-0.984-0.343-0.493-1.457-0.886c-0.772-0.273-0.505-0.217-1.301-0.594l-6.228-2.853c-1.255-0.439-2.203-0.494-3.319-0.932
		l-2.985-1.426c-0.938-0.409-1.899-0.896-2.948-1.468c-2.707-1.477-6.638-5.94-7.43-6.093c3.537,6.069,7.255,7.576,13.119,10.529
		c2.438,1.228,1.866,0.698,2.6,1.062c0.587,0.29,0.119,1.121,2.237,0.86l1.329,1.027l0.414,0.27
		c0.491,0.308,1.352,0.883,1.667,0.812l0.572-0.284l0.584,1.098l1.173-0.409c0.942,1.712-0.068,0.342,0.972,0.95
		c2.248,0.062,0.868,0.149,1.53,0.633c0.232,0.169,0.307,0.31,0.839,0.429c0.483,0.107,0.356,0.027,0.79-0.034
		c1.093,1.228,1.627,0.652,3.034,1.552c1.262,0.809,1.67,0.779,3.117,1.306c0.871,0.972,1.218,1.041,2.136,1.691
		c0.487,0.344,1.433,1.489,1.499,2.507c0.053,0.814-1.314,4.674-1.523,5.3c-1.997,1.142-3.491,2.796-6.205,3.226
		c-1.033-0.246-1-0.331-2.136,0.063l-3.553-0.395C41.662,38.403,39.574,38.154,36.639,37.26L36.639,37.26z M45.186,35.235
		c1.917,0.039,3.618-0.319,5.609-0.513c3.061-0.297,4.004-0.223,3.986-1.815l-8.497,0.438c-1.841-0.047-3.121,0.882-4.887-0.722
		c-1.228-1.115-2.345-1.702-3.95-2.453c-0.891-0.844-1.584-1.104-2.766-1.58c-0.36-0.484-0.578-0.446-1.429-0.956
		c-3.042-1.817-13.119-9.588-14.817-11.683c-1.529-1.883-3.649-5.095-4.607-5.461c1.955,3.152,3.591,6.772,6.688,8.963
		c1.376,0.975,1.375,1.393,2.583,2.394c2.543,2.107,8.521,7.438,11.53,7.965c0.655,0.575,1.134,0.94,2.195,1.308
		c1.014,0.932,2.865,1.054,3.675,1.949c-1.362,0.189-0.781,0.173-1.835-0.212c-1.248-0.455-0.326-0.49-1.604-0.422
		c-1.355-1.187-1.042-0.383-2.499-1.429c-0.041-0.03-0.243-0.124-0.191-0.161c0.053-0.038-0.125-0.116-0.191-0.17
		c-1.19-0.397-3.868-2.164-5.03-2.879C23.515,24.33,17.809,17.533,15.713,17.2c1.06,1.268,4.163,5.149,5.271,6.053l3.246,2.646
		c1.627,1.133,2.892,2.765,4.609,3.552c0.687,0.314,0.786,0.226,1.539,0.636c1.22,0.663,1.888,1.327,3.64,2.115
		c1.055,0.737,1.677,0.965,2.965,1.419c0.213,0.445,0.124,0.305,0.713,0.597C38.665,34.699,44.437,35.232,45.186,35.235
		L45.186,35.235z M35.254,27.418c0.684,0.773-0.495,0.018,0.76,0.722c0.35,0.195,0.536,0.167,1.012,0.25
		c0.168,0.213,0.439,0.546,0.613,0.685c0.422,0.337,0.337,0.201,0.798,0.452c2.7,1.468,1.321,1.921,5.076,1.159
		c0.47,0.481,0.049,0.349,1.031,0.719l3.545,0.597c2.027,0.37,2.891-0.462,5.301-0.153c1.225,0.269,0.834,0.053,1.857,0.614
		l0.192,1.667l-2.232,1.324c0.05,0.008-0.122,0.128-0.179,0.197l-0.691-0.058l-2.275,0.383l-2.976,0.075l-2.667,0.011
		c-2.658,0.166-5.595-0.941-7.642-1.154c-0.75-1.023-1.616-1.07-2.785-1.597l-6.909-3.788c-4.461-3.135-3.127-2.579-6.164-4.979
		c-6.706-5.299-5.188-6.818-5.829-8.272l-3.427-5.419l0.072,1.253c0.012,0.05,0.394,1.103,0.398,1.114
		c0.308,0.792,0.647,1.466,1.03,2.148c2.358,4.197,0.458,1.505,1.688,4.074c1.274,2.662,4.77,5.763,6.997,7.837
		c0.874,0.813,0.594,1.009,1.438,1.574l3.246,2.254c3.82,2.422,3.158,1.379,5.527,3.063c0.624,0.443,0.837,0.573,1.656,0.77
		c0.849,0.757,1.533,0.911,2.658,1.275l0.597,0.278c0.058,0.025,0.155,0.062,0.216,0.088c0.087,0.037,0.349,0.145,0.439,0.181
		c0.066,0.026,0.155,0.065,0.222,0.092c1.287,0.505,4.292,1.12,5.557,0.871c0.073,0.041,0.171,0.098,0.225,0.116
		c0.054,0.02,0.166,0.08,0.237,0.101c1.199,0.347,2.233,0.181,3.325-0.086l3.115,0.214c1.407-0.215,1.848-0.064,2.828-0.789
		l1.588-1.029c1.187-0.836,1.327-1.11,1.664-2.505c0.325-0.966-0.07-1.12-0.563-1.828c-0.815-1.169-0.439-1.041-1.677-1.304
		c-0.689-0.798-1.338-0.666-2.756-0.567c-1.068,0.074-1.894,0.184-2.929,0.2c-1.809,0.027-3.818-0.285-5.221-0.79
		c-2.571-0.377,0.098,0.342-2.856-1.062c-0.683-0.324-1.152-0.495-1.748-0.748l-1.492-0.535c-0.524-0.621-0.143-0.41-1.004-0.741
		c-0.804-0.684-2.039-1.168-3.021-1.792c-1.187-0.754-2.038-1.3-2.884-1.957c-1.754-1.361-3.565-2.757-5.375-4.082
		c-0.911-0.666-1.823-1.69-2.618-2.35c-0.938-0.779-1.802-1.36-2.292-2.42c-1.748-3.779-1.166-1.514-3.178-4.34
		c-0.961-1.351,0.077-0.83-1.175-1.174c3.276,5.716,3.517,7.312,8.679,11.522C27.446,22.364,31.453,25.982,35.254,27.418
		L35.254,27.418z M76.248,8.077c5.189,9.658,5.555,9.857,8.463,21.182c0.637-1.391-0.113-4.334-0.656-5.873
		c-0.408-1.154-0.865-1.721-1.139-2.766c-0.319-1.221-0.428-2.017-0.97-3.215c-1.274-2.818-1.974-5.052-3.801-7.524
		C77.094,8.458,77.833,8.074,76.248,8.077L76.248,8.077z M86.104,10.88c-0.039,0.138,2.844,8.878,3.34,10.472
		c1.287,4.137,0.996,4.966,1.148,8.533c0.056,1.319,0.057,1.068,0.992,2.292c0.826-3.917-1.389-13.95-3.176-17.07
		c-0.855-1.494-0.398-0.993-0.836-2.117C87.268,12.212,86.734,11.315,86.104,10.88L86.104,10.88z M4.246,49.337
		c2.188,1.813,1.134-0.014,1.519,2.874c0.107,0.805,0.113,0.419,0.803,1.186c0.535,0.594,0.206,0.096,0.6,0.836
		c0.222,0.418,0.145,0.416,0.323,0.766l2.013,3.158c2.121,2.383,0.706,1.445,1.803,2.998c-1.117-6.065-0.333-2.417-2.344-7.528
		L7.032,50.3c-0.903-1.238-1.381-2.029-2.073-3.54l-0.61,1.162C4.084,48.871,4.198,48.479,4.246,49.337z M54.043,0.947
		c0.512,0.606,0.479,0.466,1.331,0.893c2.173,1.086,4.235,2.81,5.969,4.459c1.235,1.176,2.246,0.331,4.741,3.361l1.924,2.12
		c1.934,2.312,2.678,4.17,4.061,4.363c-1.988-3.385-4.676-7.056-7.841-9.498l-4.461-3.361c-1.988-1.443-2.814-1.537-4.735-2.767
		L54.043,0.947c-0.613-1.063-0.348-0.812-1.69-0.836c0.521,0.522-0.089,0.263,0.896,0.728C54.141,1.261,53.235,0.872,54.043,0.947z
		 M39.544,21.394l-4.277-2.289c-3.157-1.496-0.531,0.038-4.271-2.416c-3.751-2.461-3.823-1.498-8.007-4.789l-2.425-2.208
		c-1.08-1.014-0.852-1.463-2.143-2.213l1.454,2.791c0.898,1.412,8.563,6.698,10.292,7.589c2.739,1.412-0.126,0.632,4.443,3.003
		l0.831,0.417c0.44,0.199,0.46,0.166,0.871,0.377c0.432,0.222,0.113,0.083,0.606,0.36c0.077,0.042,0.608,0.33,0.614,0.332
		c0.784,0.342-0.438,0.063,0.701,0.197c0.422,0.449-0.069,0.03,0.673,0.637c0.428,0.351,0.376,0.26,0.59,0.417
		c1.08,0.803,0.435,0.297,1.516,0.618c0.076,0.022,0.168,0.047,0.244,0.072c0.075,0.023,0.163,0.068,0.235,0.094
		c0.508,0.175,0.588,0.353,1.156,0.318c0.932,0.969,3.762,1.408,5.099,1.72c0.437,0.636-0.077,0.152,1.06,0.5
		c4.702,1.438,2.27,1.63,4.079,1.444c0.887,1.293,1.145,0.767,2.4,1.542c1.547,1.23,0.268,1.416,1.697,1.632
		c-0.256-1.672-0.07-2.034-1.012-2.649c-0.459-0.301-0.176-0.104-0.617-0.236c-0.956-1.104-1.129-1.177-2.601-1.381l-0.143-0.835
		c-1.888-0.202-0.94-0.866-2.609-0.612c-0.365-0.353-0.026-0.238-0.846-0.627c-1.383-0.656-3.733-1.279-5.065-0.869l-0.137-0.918
		c-0.707-0.397-1.197-0.767-1.881-1.046c-0.645-0.263-1.307-0.449-1.789-0.569C39.926,21.301,40.714,21.438,39.544,21.394z
		 M39.878,24.712c-1.037-0.149-3.978-1.861-5.101-2.488l-9.354-6.102c-0.39-0.277-3.034-2.899-4.521-3.366
		c6.55,7.3,4.813,5.18,11.853,10.322c0.023,0.017,1.087,0.775,1.144,0.81c0.196,0.119,0.193,0.123,0.609,0.318
		c4.005,1.883,1.997,1.926,4.275,2.596c1.367,0.46,5.461,1.881,6.875,1.951c0.494,0.628,4.158,0.81,5.437,0.518
		c0.126-0.028,0.152-0.086,0.227-0.133c-4.564-2.398-1.954-0.896-3.779-1.245c-0.661-0.126-0.364-0.329-1.36-0.357
		C45.513,27.006,42.956,26.593,39.878,24.712L39.878,24.712z M81.512,56.071c-0.727,1.195-0.797,0.864-1.438,1.635
		c-1.111,1.339-2.473,3.896-3.115,5.638c2.67-1.715,3.318-4.23,5.303-6.657c1.037-1.269,1.369-2.098,1.984-3.729
		c0.635-1.682,1.011-3.135,2.25-3.98c0.068-1.042-0.16,0.242,0.173-0.6l1.129-2.582c0.87-2.943,0.62-8.8,0.633-11.92
		c-0.889,0.958-0.487,6.885-2.271,11.909C85.26,48.315,82.942,53.953,81.512,56.071L81.512,56.071z M8.018,14.842
		c-0.229,1.057-0.081,0.851,0.564,1.745c0.957,1.322,1.892,3.611,2.951,5.532c1.551,2.814,2.395,4.452,4.403,6.678l5.496,5.145
		c0.845,0.464,0.103-0.195,1.593,0.931c0.173,0.131,4.097,2.562,4.789,2.11c1.31-0.857-2.168-2.121-4.454-3.793
		c-4.6-3.367-8.349-6.539-11.051-11.777C11.584,20.008,9.579,15.304,8.018,14.842z M95.422,19.783
		c-1.951,0.882,0.234-1.009-0.538,5.186c-0.069,0.554-0.325-0.23-0.045,1.203c0.835,4.262,1.603,10.172,0.46,14.4
		c-0.318,1.178-0.415,0.638-0.588,2.063c-0.184,1.489-0.208,3.315-0.564,4.794c-0.871,3.621-0.75,0.645-2.093,8.562
		c3.153-5.17,4.068-11.107,4.636-17.06c0.574-6.043-0.508-9.828-0.009-12.701C96.797,25.563,95.605,20.076,95.422,19.783
		L95.422,19.783z M79.889,7.787L79.019,8.3c1.179,1.832,1.709,2.898,2.776,5.301l2.511,6.176c0.817,2.108,1.445,4.597,1.686,7.016
		c0.562,5.65,0.268,10.662-1.14,16.075l-1.963,5.156c-0.445,1.026-0.451,1.72-0.784,2.854l-2.016,5.318l1.253-0.59
		c-0.158-0.943,3.254-9.143,3.823-10.818c0.656-1.93,1.339-3.592,1.53-5.742c0.873-9.781,0.535-4.212-0.07-13.367
		c-0.205-3.098-4.252-13.449-5.459-15.63C80.77,9.332,79.988,8.75,79.889,7.787L79.889,7.787z M8.827,19.497
		c-1.887,1.762,6.384,12.445,9.222,14.78l3.28,2.59c0.661,0.559,3.325,2.053,4.324,2.369c2.825,0.896,2.696,2.119,5.962,2.436
		c0.501,0.048,0.442,0.111,0.859-0.137c-6.67-4.959-7.418-3.982-10.408-6.104l-3.085-2.469c-0.848-0.89-1.971-1.87-3.099-2.883
		c-2.351-2.111-3.401-4.274-4.948-6.709C10.134,22.105,9.604,20.674,8.827,19.497L8.827,19.497z M78.973,16.65
		c-0.188,1.245,3.844,11.114,4.43,13.613c1.582,6.749-1.627,16.374-3.935,22.743c-0.873,2.412-3.733,7.102-5.431,8.965l-2.814,3.861
		c1.865-1.361,3.054-2.313,4.475-4.382c4.584-6.663,1.422-1.079,4.416-7.985c1.28-2.953,0.59-2.537,2.054-5.952
		c1.682-3.925,3.509-13.152,2.157-16.942l-3.582-10.666c-0.234-0.658-0.414-1.315-0.656-1.84
		C79.465,16.719,79.293,16.877,78.973,16.65z M76.166,15.167c-0.621,1.169,0.425,1.266,1.148,3.152
		c2.638,6.877,4.852,13.145,4.072,20.69c-0.139,1.331-0.18,2.545-0.572,3.863c-1.498,5.035-4.994,13.87-9.028,17.518
		c-0.39,0.352-0.409,0.393-0.679,0.67c-2.098,2.146-1.227,2.28-5.029,4.997c-1.96,1.399-0.895,0.386-2.744,2.394
		c3.211-1.449,4.811-2.986,7.35-5.12l3.613-4.007c3.006-4.174,4.416-6.748,6.088-12.504c1.074-3.705,1.197-1.66,1.748-7.018
		c0.391-3.8,0.034-4.913-0.256-8.702c-0.189-2.49-1.381-6.228-2.201-8.833C79.09,20.404,77.498,15.952,76.166,15.167L76.166,15.167z
		 M89.727,13.602c0.021,1.788,2.176,5.632,2.32,7.839c0.164,2.521,1.023,3.929,0.64,9.046c-0.079,1.051-0.226,1.71-0.163,3
		l-0.455,3.045c0.479,0.788,0.993-0.045-0.361,2.275l1.002,0.848c-1.176,1.307-0.354-0.267-0.967,4.625
		c-0.845,6.75-1.382,7.949-3.611,14.225c1.422-0.61,2.246-2.689,2.805-4.245c0.396-1.108,0.058-1.664,0.436-2.804
		c0.287-0.861,0.84-1.947,1.037-2.693c1.6-6.035,1.779-18.148,1.281-23.64c-0.125-1.38-1.719-8.541-2.28-9.426
		C90.715,14.606,90.714,14.299,89.727,13.602z M5.468,15.531c-0.815,0.993,0.157,2.595,1.108,5.503
		c1.444,4.414,7.175,13.054,10.818,16.205l5.77,3.508c0.669,0.465,0.169,0.254,1.146,0.779c0.478,0.257,0.562,0.271,1.071,0.504
		c1.125,0.518,6.217,2.658,7.138,2.256c0.631-0.275,0.12,0.662,0.357-0.389c0.148-0.662-0.455-0.889-1.115-1.175
		c-0.943-0.411-1.59-0.401-2.592-0.813l-4.5-2.09c-6.24-2.715-10.917-8.23-14.621-13.975C6.784,20.78,6.863,16.941,5.468,15.531
		L5.468,15.531z M9.172,29.159c-0.395,1.879,5.27,8.11,6.865,9.589l2.733,2.176c0.363,0.248,0.399,0.285,0.57,0.404
		c1.918,1.361,4.248,2.613,6.54,3.635l4.421,1.793c1.534,0.45,8.558,2.24,9.87,1.344l-2.059-1.137
		c-1.145-0.384-4.701-0.939-9.229-2.621c-1.037-0.385-1.151-0.59-2.137-0.993c-1.637-0.667-2.578-0.751-4.194-1.738
		c-3.544-2.163-7.939-5.606-10.316-9.173C10.365,29.631,10.436,29.101,9.172,29.159L9.172,29.159z M83.223,9.673
		c-0.391,2.242,3.851,8.645,4.735,16.467c0.298,2.623,1.933,8.133,1.834,10.236c-0.178,3.812,0.048,5.891-0.907,9.623
		c-1.262,4.93,0.664,2.312-1.88,8.91l-2.422,5.562c2.416-1.634,3.466-6.164,4.332-7.645c0.818-1.396,0.733-1.242,0.859-3.109
		c0.116-1.713,0.496-1.598,0.694-2.891l0.459-10.487c0.172-4.223-0.96-3.32-1.439-6.457c-0.449-2.933,0.424-0.956-1.069-7.192
		c-1.188-4.962-2.33-7.347-4.32-11.549L83.223,9.673z M72.395,16.514c-0.371,1.013,1.014,2.658,1.593,3.726
		c1.994,3.677,3.476,9.903,3.231,13.86c-0.389,6.308-1.322,12.463-5.059,17.75c-0.359,0.507-0.615,0.976-0.988,1.572
		c-1.499,2.397-3.384,3.723-5.395,5.587c-1.076,0.998-1.115,1.857-2.494,2.807c-3.129,2.152-8.833,4.764-11.153,6.373
		c-1.321,0.915-2.554,0.836-3.734,1.786c1.562,0.062,2.96-0.364,4.311-1.089c5.777-3.104,9.287-4.752,14.303-9.001
		c1.206-1.021,1.738-1.893,2.758-2.896c0.857-0.842,3.713-5.075,4.381-6.299c0.865-1.588,2.576-6.007,2.999-7.552
		c2.388-8.739,0.464-15.623-2.557-23.346c-0.288-0.733-0.452-1.201-0.915-1.926C73.155,17.049,72.875,16.815,72.395,16.514
		L72.395,16.514z M30.254,61.83c0.371,1.998,1.174,1.511,5.314,2.502c6.532,1.564,8.917-0.156,13.512-1.65
		c8.283-2.693,18.927-6.479,22.453-15.259c0.048-0.12,0.547-1.334,0.553-1.351c0.359-1.243-0.11-1.044-0.157-1.088
		c-1.147,2.443-0.944,2.374-2.659,4.543c-4.507,5.701-5.562,5.947-14.424,9.465C35.122,66.818,35.234,61.433,30.254,61.83
		L30.254,61.83z M60.906,1.736c0.732,1.283,7.097,4.944,13.049,14.526c2.193,3.532,3.039,6.608,4.195,10.552
		c1.175,4.008,1.506,8.543,1.004,12.327c-0.943,7.112-3.641,12.305-7.842,17.799c-4.16,5.436-2.748,3.274-6.973,6.744
		c-4.48,3.68-6.756,3.932-8.451,5.717c9.847-4.591,17.109-9.275,21.451-20.166c3.236-8.12,3.82-15.726,1.168-24.434l-1.194-3.624
		c-1.863-4.692-5.091-10.308-8.74-13.431c-2.267-1.939-1.522-2.191-5.561-5.041c-0.196-0.138-0.88-0.664-0.939-0.696
		C61.227,1.536,62.668,1.465,60.906,1.736L60.906,1.736z"/>
</g>
</svg>
